<svg width="100" height="130" viewBox="0 0 100 130" fill="none" xmlns="http://www.w3.org/2000/svg">
<g clip-path="url(#clip0_44_86)">
<path d="M49.9391 129.672L9.24297 119.257L0.173828 25.4836H99.8262L90.7477 119.242L49.9391 129.672Z" fill="#264DE4"/>
<path d="M82.9754 113.272L90.7332 33.1508H50V121.699L82.9754 113.272Z" fill="#2965F1"/>
<path d="M20.9645 67.9299L22.0824 79.4308H50V67.9299H20.9645ZM18.7176 44.652L19.8516 56.1528H50V44.652H18.7176ZM50 97.7989L49.9453 97.8123L36.0516 94.3538L35.1633 85.1814H22.6399L24.3875 103.239L49.9426 109.779L50 109.765V97.7989Z" fill="#EBEBEB"/>
<path d="M23.6266 0H38.7359V5.82515H29.9453V11.6503H38.7367V17.4751H23.6266V0ZM41.7582 0H56.868V5.06532H48.0769V6.07831H56.868V17.7286H41.7586V12.4094H50.5496V11.3964H41.7578L41.7582 0ZM59.8902 0H75V5.06532H66.209V6.07831H75V17.7286H59.8902V12.4094H68.6812V11.3964H59.8906L59.8902 0Z" fill="black"/>
<path d="M78.9559 67.9299L81.2078 44.652H49.957V56.1528H67.5359L66.4008 67.9299H49.957V79.4308H65.3191L63.8707 94.3466L49.9566 97.8087V109.774L75.532 103.239L75.7195 101.296L78.6516 71.0182L78.9559 67.9299Z" fill="white"/>
</g>
<defs>
<clipPath id="clip0_44_86">
<rect width="100" height="130" fill="white"/>
</clipPath>
</defs>
</svg>
