<svg width="60" height="60" viewBox="0 0 60 60" fill="none" xmlns="http://www.w3.org/2000/svg">
<path d="M29.9067 3C1.38416 3.5975 -4.55084 41.87 22.1292 51.05C23.3742 51.2825 23.8392 50.5025 23.8392 49.855V45.655C16.8642 47.1575 15.3892 42.3625 15.3892 42.3625C14.9211 40.8618 13.9256 39.5812 12.5867 38.7575C10.3317 37.2275 12.7667 37.2525 12.7667 37.2525C13.5642 37.3575 14.3263 37.6467 14.9927 38.0971C15.6592 38.5475 16.2117 39.1467 16.6067 39.8475C17.3138 41.0785 18.476 41.9828 19.8431 42.3657C21.2102 42.7486 22.6729 42.5796 23.9167 41.895C24.0467 40.645 24.6042 39.4825 25.4992 38.6025C19.9242 37.9775 14.0892 35.8525 14.0892 26.415C14.0546 23.956 14.9864 21.5817 16.6842 19.8025C15.8988 17.6593 15.9914 15.2928 16.9417 13.2175C16.9417 13.2175 19.0417 12.5675 23.8417 15.81C27.9507 14.6949 32.2826 14.6949 36.3917 15.81C41.1617 12.62 43.2617 13.215 43.2617 13.215C44.1742 15.285 44.2567 17.6225 43.4942 19.75C45.1912 21.5294 46.1221 23.9038 46.0867 26.3625C46.0867 35.8275 40.2267 37.9275 34.6517 38.525C37.2467 39.9 36.1567 48.74 36.3117 49.83C36.3117 50.4775 36.7517 51.255 38.0492 51.0225C64.6542 41.9225 58.4292 3.5975 29.9067 3Z" fill="black"/>
</svg>
