<svg width="130" height="130" viewBox="0 0 130 130" fill="none" xmlns="http://www.w3.org/2000/svg">
<path d="M28.2892 118.172L20.1205 26.5515H109.879L101.703 118.158L64.9452 128.348L28.2892 118.172Z" fill="#E44D26"/>
<path d="M65 120.559L94.7009 112.324L101.689 34.0437H65V120.559Z" fill="#F16529"/>
<path d="M65 68.0246H50.1302L49.1044 56.5165H65V45.2797H36.8235L37.0916 48.2951L39.8541 79.2604H65V68.0246ZM65 97.2065L64.9502 97.2197L52.4367 93.8397L51.6364 84.8789H40.3558L41.93 102.522L64.9482 108.913L65 108.897V97.2065Z" fill="#EBEBEB"/>
<path d="M28.472 1.65247H34.1819V7.29528H39.4063V1.65247H45.1171V18.7373H39.4063V13.0163H34.1829V18.7373H28.472V1.65247ZM52.6256 7.31864H47.5983V1.65247H63.3659V7.31864H58.3365V18.7373H52.6256V7.31864ZM65.8684 1.65247H71.822L75.4853 7.65583L79.1446 1.65247H85.1013V18.7373H79.4128V10.269L75.4853 16.3435H75.3858L71.4553 10.269V18.7373H65.8674V1.65247H65.8684ZM87.944 1.65247H93.6559V13.0904H101.686V18.7383H87.944V1.65247Z" fill="black"/>
<path d="M64.9614 68.0246V79.2604H78.7983L77.4942 93.8336L64.9614 97.2167V108.907L87.9978 102.522L88.1664 100.623L90.8071 71.041L91.0813 68.0246H88.0527H64.9614ZM64.9614 45.2797V56.5165H92.104L92.3285 53.9907L92.8413 48.2951L93.1105 45.2797H64.9614Z" fill="white"/>
</svg>
