<svg width="130" height="130" viewBox="0 0 130 130" fill="none" xmlns="http://www.w3.org/2000/svg">
<g clip-path="url(#clip0_44_92)">
<path d="M0 0H130V130H0V0Z" fill="#F7DF1E"/>
<path d="M34.1819 108.637L44.1299 102.617C46.0495 106.02 47.7953 108.899 51.9832 108.899C55.9975 108.899 58.5289 107.329 58.5289 101.221V59.6826H70.7454V101.393C70.7454 114.047 63.3283 119.806 52.5068 119.806C42.7339 119.806 37.0612 114.745 34.1814 108.636M77.381 107.328L87.328 101.569C89.9468 105.845 93.3502 108.987 99.3708 108.987C104.433 108.987 107.661 106.456 107.661 102.965C107.661 98.7766 104.345 97.2928 98.7599 94.8502L95.7064 93.54C86.8923 89.7888 81.0459 85.0763 81.0459 75.1283C81.0459 65.9653 88.0268 58.9839 98.9351 58.9839C106.702 58.9839 112.286 61.6895 116.3 68.7578L106.788 74.8667C104.693 71.1145 102.425 69.6312 98.9346 69.6312C95.3565 69.6312 93.0876 71.9001 93.0876 74.8667C93.0876 78.5316 95.3565 80.016 100.592 82.2849L103.646 83.5935C114.031 88.0445 119.877 92.5818 119.877 102.791C119.877 113.787 111.238 119.808 99.6323 119.808C88.2883 119.808 80.958 114.397 77.3805 107.329" fill="black"/>
</g>
<defs>
<clipPath id="clip0_44_92">
<rect width="130" height="130" fill="white"/>
</clipPath>
</defs>
</svg>
