<svg width="130" height="130" viewBox="0 0 130 130" fill="none" xmlns="http://www.w3.org/2000/svg">
<g clip-path="url(#clip0_44_95)">
<path d="M116.099 56.1173C116.047 56.1173 115.995 56.1328 115.952 56.162L113.569 57.5534C113.524 57.5812 113.488 57.6201 113.462 57.6664C113.437 57.7127 113.424 57.7647 113.425 57.8175V60.6003C113.425 60.7181 113.481 60.8075 113.569 60.8664L115.952 62.2557C115.995 62.285 116.047 62.3006 116.099 62.3006C116.152 62.3006 116.203 62.285 116.246 62.2557L118.625 60.8664C118.67 60.838 118.707 60.7986 118.733 60.7518C118.759 60.7051 118.772 60.6526 118.772 60.5993V57.8195C118.773 57.7665 118.76 57.7142 118.734 57.6679C118.708 57.6216 118.67 57.5828 118.625 57.5554L116.245 56.163C116.202 56.134 116.151 56.1175 116.099 56.1173ZM64.2078 72.7573C63.7741 72.7573 63.3425 72.8629 62.9748 73.0701L51.2454 79.9022C50.8696 80.123 50.558 80.4383 50.3417 80.8167C50.1254 81.1951 50.0119 81.6235 50.0124 82.0594V95.6922C50.0124 96.5798 50.4816 97.4086 51.2454 97.8534L54.3329 99.6267C55.832 100.366 56.3611 100.364 57.0365 100.364C59.2404 100.364 60.5048 99.0041 60.5048 96.6672V83.2152C60.5036 83.1216 60.466 83.0321 60.4001 82.9656C60.3342 82.8991 60.245 82.8608 60.1514 82.8587H58.6544C58.5604 82.8603 58.4708 82.8984 58.4044 82.9649C58.3381 83.0315 58.3002 83.1212 58.2989 83.2152V96.6702C58.2989 97.7051 57.2132 98.7421 55.4795 97.8554L52.2752 95.9918C52.1574 95.9329 52.0975 95.7825 52.0975 95.6647V82.0289C52.0975 81.9111 52.1574 81.7649 52.2752 81.705L64.0006 74.9033C64.089 74.8444 64.2373 74.8444 64.3551 74.9033L76.0835 81.705C76.2003 81.7649 76.2582 81.8817 76.2582 82.03V95.6637C76.2582 95.811 76.2003 95.9318 76.0835 95.9907L64.3551 102.823C64.2667 102.882 64.1184 102.882 64.0006 102.823L61.0035 101.016C60.9152 100.957 60.7973 100.928 60.709 100.987C59.8863 101.46 59.7421 101.522 58.9479 101.788C58.7712 101.847 58.4777 101.964 59.0647 102.289L62.9748 104.627C63.3567 104.833 63.767 104.951 64.2078 104.951C64.6486 104.951 65.0884 104.834 65.4408 104.687L77.1702 97.8544C77.5467 97.6333 77.8586 97.3174 78.0749 96.9382C78.2912 96.559 78.4044 96.1297 78.4032 95.6932V82.0594C78.4032 81.1718 77.934 80.3461 77.1702 79.9022L65.4408 73.0701C65.063 72.8629 64.6387 72.7553 64.2078 72.7573ZM82.5195 78.9831C81.9176 78.9855 81.3412 79.2268 80.9171 79.654C80.493 80.0811 80.2558 80.6592 80.2577 81.2611C80.2561 81.8629 80.4934 82.4407 80.9175 82.8676C81.3416 83.2946 81.9178 83.5357 82.5195 83.5382C83.7555 83.5382 84.7823 82.5032 84.7823 81.2611C84.7792 80.6607 84.5402 80.0855 84.1169 79.6595C83.6937 79.2336 83.12 78.99 82.5195 78.9831ZM82.4891 79.368C82.7394 79.3649 82.9879 79.4116 83.2201 79.5054C83.4523 79.5992 83.6635 79.7383 83.8414 79.9144C84.0194 80.0906 84.1605 80.3003 84.2567 80.5315C84.3528 80.7627 84.402 81.0107 84.4015 81.2611C84.4015 82.2971 83.5484 83.1847 82.4901 83.1847C81.4623 83.1847 80.6091 82.3255 80.6091 81.2611C80.6091 80.1968 81.4907 79.368 82.4891 79.368ZM81.6674 79.9886V82.5906H82.1691V81.5587H82.6099C82.7866 81.5587 82.8445 81.6176 82.874 81.7649C82.874 81.7954 82.9613 82.4454 82.9613 82.5632H83.4895C83.4305 82.4454 83.4011 82.0899 83.3716 81.8827C83.3432 81.5577 83.3148 81.3211 82.9613 81.2916C83.138 81.2317 83.4316 81.1433 83.4316 80.67C83.4316 79.9896 82.8425 79.9896 82.55 79.9896L81.6674 79.9886ZM82.1092 80.4029H82.5195C82.6678 80.4029 82.9014 80.4029 82.9014 80.7574C82.9014 80.8752 82.8445 81.1139 82.5195 81.1139H82.1082L82.1092 80.4029ZM67.4131 82.4443C64.0616 82.4443 62.0628 83.8642 62.0628 86.26C62.0628 88.8336 64.0616 89.5405 67.2659 89.8665C71.1151 90.2514 71.4096 90.8141 71.4096 91.5829C71.4096 92.9134 70.3493 93.4761 67.8803 93.4761C64.7644 93.4761 64.089 92.7062 63.8534 91.1391C63.8534 90.9614 63.7091 90.8446 63.5324 90.8446H62.0039C61.9105 90.8456 61.8213 90.8834 61.7555 90.9498C61.6898 91.0161 61.6528 91.1056 61.6525 91.199C61.6525 93.21 62.7098 95.5764 67.8549 95.5764C71.5569 95.5764 73.7029 94.0956 73.7029 91.4936C73.7029 88.9494 71.9966 88.27 68.383 87.7967C64.737 87.3234 64.3561 87.0573 64.3561 86.2001C64.3561 85.4902 64.6791 84.5447 67.3827 84.5447C69.7927 84.5447 70.7027 85.0779 71.0562 86.7039C71.0739 86.7773 71.1152 86.8428 71.1737 86.8905C71.2322 86.9382 71.3047 86.9654 71.3802 86.9679H72.9371C73.0265 86.9679 73.1148 86.91 73.1748 86.8511C73.2281 86.772 73.258 86.6794 73.2611 86.584C73.0265 83.7454 71.176 82.4443 67.4131 82.4443Z" fill="#5FA04E"/>
<path d="M87.4169 25.0494C87.2918 25.0476 87.1685 25.0787 87.0594 25.1398C86.9459 25.2064 86.8514 25.3009 86.7847 25.4143C86.7181 25.5277 86.6815 25.6562 86.6785 25.7878V45.0125C86.6785 45.1892 86.5871 45.368 86.4114 45.4858C86.3302 45.5294 86.2395 45.5522 86.1473 45.5522C86.0552 45.5522 85.9645 45.5294 85.8833 45.4858L82.7694 43.6831C82.5408 43.5525 82.2821 43.4838 82.0188 43.4838C81.7556 43.4838 81.4969 43.5525 81.2683 43.6831L68.8086 50.9296C68.578 51.0596 68.3859 51.2482 68.2516 51.4762C68.1173 51.7043 68.0456 51.9639 68.0438 52.2285V66.691C68.0438 67.2232 68.3384 67.727 68.8086 67.9931L81.2703 75.2395C81.4988 75.3699 81.7573 75.4385 82.0203 75.4385C82.2834 75.4385 82.5419 75.3699 82.7704 75.2395L95.2311 67.9931C95.7013 67.727 95.9958 67.2232 95.9958 66.691V30.6394C95.9958 30.0778 95.7013 29.573 95.2311 29.3079L87.7967 25.1398C87.6791 25.0808 87.5484 25.0499 87.4169 25.0494ZM13.9009 43.093C13.6662 43.093 13.4316 43.1783 13.2265 43.2961L0.764762 50.5162C0.530554 50.6495 0.336184 50.8429 0.201737 51.0764C0.0672906 51.31 -0.00235524 51.5752 -3.38505e-06 51.8446L0.0304654 71.2451C0.0304654 71.5122 0.1757 71.7783 0.411325 71.8971C0.520557 71.9688 0.648346 72.0069 0.778981 72.0069C0.909616 72.0069 1.03741 71.9688 1.14664 71.8971L8.55461 67.6386C9.02484 67.3725 9.31633 66.8688 9.31633 66.3366V57.2569C9.31633 56.7247 9.61086 56.221 10.0821 55.9549L13.2265 54.1217C13.4611 53.9734 13.7272 53.9145 13.9912 53.9145C14.2553 53.9145 14.5204 53.9734 14.7266 54.1217L17.8709 55.9549C18.3412 56.221 18.6357 56.7247 18.6357 57.2569V66.3366C18.6357 66.8688 18.9282 67.3725 19.3974 67.6386L26.7465 71.8971C26.8607 71.97 26.9934 72.0087 27.1289 72.0087C27.2644 72.0087 27.397 71.97 27.5112 71.8971C27.6282 71.8335 27.7256 71.7392 27.7929 71.6243C27.8602 71.5094 27.8949 71.3783 27.8931 71.2451V51.8446C27.8931 51.3124 27.5986 50.8087 27.1273 50.5416L14.6961 43.2961C14.4867 43.185 14.2576 43.1156 14.0217 43.092L13.9009 43.093ZM116.141 43.3063C115.884 43.3063 115.629 43.3733 115.393 43.5074L102.93 50.7498C102.459 51.0159 102.168 51.5196 102.168 52.0528V66.5153C102.168 67.0475 102.459 67.5513 102.93 67.8174L115.304 74.9135C115.527 75.0442 115.78 75.1131 116.039 75.1131C116.297 75.1131 116.551 75.0442 116.774 74.9135L124.269 70.716C124.386 70.6522 124.483 70.5578 124.55 70.4429C124.617 70.328 124.652 70.197 124.65 70.0639C124.651 69.9312 124.616 69.8006 124.549 69.6861C124.482 69.5716 124.385 69.4775 124.269 69.4139L111.749 62.1664C111.635 62.0996 111.541 62.0046 111.474 61.8906C111.407 61.7766 111.371 61.6474 111.368 61.5154V56.9898C111.367 56.8571 111.402 56.7265 111.469 56.612C111.536 56.4975 111.633 56.4034 111.749 56.3398L115.659 54.0912C115.774 54.0183 115.906 53.9796 116.042 53.9796C116.177 53.9796 116.31 54.0183 116.424 54.0912L120.33 56.3388C120.445 56.4053 120.54 56.5001 120.607 56.6141C120.675 56.7281 120.711 56.8575 120.714 56.9898V60.5394C120.714 60.8065 120.86 61.0726 121.095 61.1904C121.209 61.2635 121.342 61.3023 121.478 61.3023C121.614 61.3023 121.746 61.2635 121.861 61.1904L129.266 56.8435C129.493 56.711 129.681 56.5205 129.81 56.2916C129.939 56.0626 130.005 55.8034 130.001 55.5405V52.0213C130.001 51.4892 129.706 50.9885 129.266 50.7213L116.891 43.5063C116.663 43.3757 116.405 43.3065 116.142 43.3053L116.141 43.3063ZM82.0188 54.1064C82.0848 54.1064 82.1519 54.1217 82.2118 54.1521L86.4713 56.6363C86.5891 56.6953 86.6491 56.8415 86.6491 56.9603V61.9288C86.6491 62.077 86.5891 62.1969 86.4713 62.2558L82.2108 64.74C82.151 64.7693 82.0854 64.7845 82.0188 64.7845C81.9523 64.7845 81.8866 64.7693 81.8269 64.74L77.5663 62.2558C77.4485 62.1969 77.3886 62.0476 77.3886 61.9288V56.9603C77.3886 56.812 77.4495 56.6953 77.5663 56.6353L81.8269 54.1521C81.8864 54.1212 81.9517 54.1055 82.0188 54.1064Z" fill="#333333"/>
<path d="M48.7317 43.5632C48.5037 43.4321 48.2452 43.363 47.9822 43.363C47.7191 43.363 47.4607 43.4321 47.2327 43.5632L34.8583 50.7508C34.6315 50.8832 34.4439 51.0733 34.3147 51.3019C34.1856 51.5305 34.1194 51.7893 34.123 52.0518V66.4544C34.123 66.9876 34.4175 67.4904 34.8583 67.7564L47.2327 74.943C47.4607 75.0742 47.7191 75.1432 47.9822 75.1432C48.2452 75.1432 48.5037 75.0742 48.7317 74.943L61.1051 67.7564C61.5753 67.4904 61.8404 66.9876 61.8404 66.4544V52.0518C61.8404 51.5197 61.5459 51.0159 61.1051 50.7508L48.7317 43.5632Z" fill="url(#paint0_linear_44_95)"/>
<path d="M61.1345 50.7507L48.7023 43.5632C48.5803 43.5013 48.4523 43.452 48.3204 43.4159L34.388 67.4009C34.5059 67.5492 34.6521 67.667 34.7994 67.7564L47.2327 74.9429C47.5851 75.1501 47.9964 75.209 48.3783 75.0902L61.4585 51.0168C61.3726 50.9042 61.2617 50.8131 61.1345 50.7507Z" fill="url(#paint1_linear_44_95)"/>
<path d="M61.1345 67.7553C61.488 67.5482 61.752 67.1937 61.8698 66.8088L48.2605 43.3854C47.9091 43.3265 47.5262 43.356 47.2032 43.5632L34.8583 50.7203L48.1731 75.1491C48.3488 75.1196 48.555 75.0607 48.7317 74.9714L61.1345 67.7553Z" fill="url(#paint2_linear_44_95)"/>
</g>
<defs>
<linearGradient id="paint0_linear_44_95" x1="53.0211" y1="48.9153" x2="41.7203" y2="71.8256" gradientUnits="userSpaceOnUse">
<stop stop-color="#3F873F"/>
<stop offset="0.33" stop-color="#3F8B3D"/>
<stop offset="0.637" stop-color="#3E9638"/>
<stop offset="0.934" stop-color="#3DA92E"/>
<stop offset="1" stop-color="#3DAE2B"/>
</linearGradient>
<linearGradient id="paint1_linear_44_95" x1="46.1018" y1="60.9349" x2="77.6321" y2="37.7819" gradientUnits="userSpaceOnUse">
<stop offset="0.138" stop-color="#3F873F"/>
<stop offset="0.402" stop-color="#52A044"/>
<stop offset="0.713" stop-color="#64B749"/>
<stop offset="0.908" stop-color="#6ABF4B"/>
</linearGradient>
<linearGradient id="paint2_linear_44_95" x1="33.6703" y1="59.2481" x2="62.3032" y2="59.2481" gradientUnits="userSpaceOnUse">
<stop offset="0.092" stop-color="#6ABF4B"/>
<stop offset="0.287" stop-color="#64B749"/>
<stop offset="0.598" stop-color="#52A044"/>
<stop offset="0.862" stop-color="#3F873F"/>
</linearGradient>
<clipPath id="clip0_44_95">
<rect width="130" height="130" fill="white"/>
</clipPath>
</defs>
</svg>
