<svg width="140" height="130" viewBox="0 0 140 130" fill="none" xmlns="http://www.w3.org/2000/svg">
<g clip-path="url(#clip0_44_109)">
<path d="M115.108 42.0925C113.618 41.5596 112.115 41.0658 110.602 40.6118C110.856 39.5285 111.09 38.4582 111.298 37.4068C114.709 20.1413 112.479 6.23192 104.862 1.65227C97.5581 -2.73808 85.6138 1.83986 73.5509 12.7855C72.362 13.8662 71.1995 14.978 70.0645 16.1199C69.3047 15.3606 68.5315 14.616 67.7452 13.8865C55.1026 2.1831 42.4304 -2.74949 34.8212 1.84328C27.5242 6.24731 25.3635 19.3231 28.4348 35.686C28.7403 37.3066 29.0853 38.9188 29.4695 40.5211C27.6757 41.0525 25.9448 41.6181 24.2884 42.2202C9.46586 47.6084 0 56.0521 0 64.8106C0 73.8564 10.162 82.9296 25.6003 88.4313C26.8519 88.8755 28.114 89.2871 29.3852 89.6657C28.9724 91.3914 28.6058 93.1289 28.286 94.8759C25.358 110.955 27.6445 123.722 34.9218 128.098C42.438 132.617 55.0534 127.972 67.3367 116.777C68.3328 115.867 69.3069 114.931 70.2581 113.97C71.4873 115.206 72.7492 116.407 74.0425 117.57C85.9414 128.245 97.6927 132.555 104.963 128.167C112.472 123.635 114.913 109.92 111.744 93.2338C111.494 91.9266 111.215 90.6258 110.905 89.3327C111.791 89.059 112.66 88.7774 113.508 88.4843C129.557 82.9405 140 73.9773 140 64.8106C140 56.0202 130.228 47.5195 115.108 42.0925ZM111.627 82.5659C110.861 82.8299 110.076 83.0847 109.275 83.3327C107.504 77.4845 105.113 71.2661 102.186 64.8408C104.979 58.5689 107.278 52.4298 109 46.6197C110.432 47.0519 111.822 47.5075 113.162 47.9881C126.117 52.6385 134.019 59.5131 134.019 64.8106C134.019 70.4531 125.485 77.7781 111.627 82.5659ZM105.877 94.4449C107.278 101.823 107.478 108.494 106.55 113.709C105.716 118.396 104.04 121.52 101.966 122.771C97.5543 125.434 88.1191 121.973 77.9434 112.843C76.7404 111.762 75.5666 110.646 74.4231 109.496C78.3683 104.998 82.3107 99.7692 86.1585 93.9614C92.9266 93.3353 99.3207 92.3113 105.119 90.9138C105.399 92.0844 105.651 93.2618 105.877 94.4449ZM47.7291 122.311C43.4186 123.898 39.9853 123.943 37.9099 122.696C33.4939 120.041 31.658 109.789 34.1622 96.0391C34.4599 94.4143 34.8007 92.7983 35.1843 91.1932C40.9188 92.516 47.2664 93.467 54.0504 94.0406C57.9245 99.7236 61.9806 104.947 66.0685 109.521C65.1998 110.397 64.3105 111.251 63.4014 112.082C57.9693 117.032 52.5262 120.545 47.7291 122.311ZM27.5352 82.5311C20.7085 80.0981 15.0708 76.9365 11.2066 73.4864C7.73391 70.3864 5.98117 67.308 5.98117 64.8106C5.98117 59.4954 13.5811 52.716 26.2571 48.1085C27.7955 47.5497 29.4055 47.0223 31.0762 46.5274C32.8284 52.4686 35.1263 58.6806 37.8995 64.9623C35.0902 71.3368 32.7595 77.6481 30.9903 83.6595C29.8299 83.3129 28.6778 82.9367 27.5352 82.5311ZM34.3044 34.4881C31.6734 20.4692 33.4206 9.89415 37.818 7.23999C42.5015 4.41306 52.8582 8.44363 63.7744 18.5494C64.4862 19.2099 65.1865 19.8838 65.8749 20.5707C61.8073 25.1247 57.7883 30.3093 53.9487 35.9586C47.3643 36.5949 41.0616 37.6167 35.2669 38.9856C34.9099 37.4953 34.5889 35.9953 34.3044 34.4881ZM94.6941 50.0362C93.3254 47.5713 91.906 45.1374 90.4367 42.7363C94.9036 43.3252 99.1834 44.107 103.202 45.0626C101.996 49.0949 100.492 53.3102 98.7219 57.6321C97.4279 55.0724 96.0851 52.54 94.6941 50.0362ZM70.0673 25.0278C72.8257 28.1438 75.5885 31.6224 78.3059 35.397C72.7934 35.1255 67.2717 35.1244 61.7591 35.3935C64.4793 31.6538 67.2656 28.1797 70.0673 25.0278ZM45.2823 50.0784C43.9088 52.562 42.591 55.0787 41.3301 57.6264C39.5888 53.3199 38.0986 49.0852 36.8818 44.9959C40.8762 44.0642 45.1358 43.3024 49.5742 42.7243C48.0886 45.1401 46.6576 47.5925 45.2823 50.0784ZM49.7016 87.3405C45.1161 86.8068 40.7925 86.0844 36.7992 85.1778C38.0352 81.0156 39.5582 76.6908 41.3372 72.2919C42.6031 74.8415 43.9264 77.3597 45.3059 79.8444C46.7245 82.3988 48.1934 84.9007 49.7016 87.3405ZM70.2324 105.033C67.3974 101.845 64.5701 98.317 61.8089 94.523C64.4897 94.6325 67.2224 94.6884 70 94.6884C72.8536 94.6884 75.6744 94.6217 78.4509 94.4928C75.7247 98.3552 72.9723 101.888 70.2324 105.033ZM98.7782 72.0672C100.65 76.5146 102.227 80.8166 103.479 84.9076C99.4202 85.8735 95.0376 86.6512 90.4198 87.2288C91.8995 84.783 93.3324 82.3068 94.7177 79.8017C96.126 77.2552 97.4799 74.6765 98.7782 72.0672ZM89.5371 76.6862C87.4164 80.5271 85.1765 84.2951 82.8209 87.9842C78.554 88.2993 74.2776 88.4558 70 88.4535C65.643 88.4535 61.4053 88.3121 57.3245 88.0361C54.9075 84.3555 52.6248 80.5809 50.4815 76.7204C48.3482 72.8803 46.3562 68.9572 44.5085 64.9594C46.3515 60.9607 48.338 57.0357 50.464 53.1927L50.4634 53.1933C52.5886 49.3493 54.853 45.5908 57.2518 41.926C61.4152 41.5976 65.6846 41.4266 69.9995 41.4266C74.334 41.4266 78.6095 41.5993 82.7717 41.93C85.1463 45.5893 87.3962 49.3349 89.5174 53.1596C91.6505 56.9942 93.6633 60.9 95.5527 64.871C93.6827 68.8826 91.6762 72.8235 89.5371 76.6862ZM101.875 7.05411C106.562 9.87306 108.386 21.2406 105.44 36.1479C105.252 37.0989 105.041 38.0677 104.811 39.0501C99.0024 37.652 92.6953 36.6126 86.0918 35.9666C82.2451 30.2551 78.2589 25.0625 74.2574 20.5673C75.3061 19.5133 76.3798 18.4867 77.4774 17.4883C87.8134 8.11065 97.4734 4.40793 101.875 7.05411ZM70 51.7764C76.9043 51.7764 82.5016 57.6121 82.5016 64.8106C82.5016 72.0091 76.9043 77.8448 70 77.8448C63.0957 77.8448 57.4984 72.0091 57.4984 64.8106C57.4984 57.6121 63.0957 51.7764 70 51.7764Z" fill="#00D8FF"/>
</g>
<defs>
<clipPath id="clip0_44_109">
<rect width="140" height="130" fill="white"/>
</clipPath>
</defs>
</svg>
