<svg width="130" height="130" viewBox="0 0 130 130" fill="none" xmlns="http://www.w3.org/2000/svg">
<g clip-path="url(#clip0_44_101)">
<path d="M99.5312 0H30.4688C13.6413 0 0 13.6413 0 30.4688V99.5312C0 116.359 13.6413 130 30.4688 130H99.5312C116.359 130 130 116.359 130 99.5312V30.4688C130 13.6413 116.359 0 99.5312 0Z" fill="#CD6799"/>
<mask id="mask0_44_101" style="mask-type:luminance" maskUnits="userSpaceOnUse" x="14" y="26" width="102" height="78">
<path d="M14.2188 26.9141H115.781V103.04H14.2188V26.9141Z" fill="white"/>
</mask>
<g mask="url(#mask0_44_101)">
<path d="M101.617 70.6687C98.0753 70.687 94.998 71.5401 92.4208 72.8005C91.4753 70.9282 90.5298 69.2595 90.3627 68.0357C90.1773 66.6082 89.9549 65.7368 90.1773 64.0311C90.3998 62.3253 91.4012 59.897 91.3824 59.7116C91.3641 59.5258 91.1599 58.6549 89.1206 58.6361C87.0812 58.6178 85.3201 59.0256 85.116 59.5633C84.9118 60.1006 84.5228 61.3244 84.2634 62.5853C83.9109 64.4394 80.1841 71.0582 78.0523 74.525C77.3662 73.1717 76.7731 71.9849 76.6431 71.0394C76.4578 69.6119 76.2353 68.7405 76.4578 67.0348C76.6802 65.329 77.6816 62.9002 77.6628 62.7148C77.6445 62.5295 77.4404 61.6581 75.401 61.6398C73.3616 61.621 71.6 62.0288 71.3964 62.5665C71.1922 63.1043 70.9698 64.3652 70.5433 65.5885C70.1172 66.8124 65.1671 77.8624 63.8691 80.7173C63.3447 81.8727 62.7946 83.0162 62.2192 84.147C62.2192 84.147 62.2004 84.2029 62.1451 84.2953C61.9641 84.65 61.7786 85.0022 61.5885 85.3521V85.3709C61.3107 85.8716 61.0137 86.3347 60.8654 86.3347C60.7542 86.3347 60.5505 85.0002 60.9024 83.1832C61.6444 79.3452 63.4055 73.3753 63.3872 73.1717C63.3872 73.0605 63.7208 72.022 62.2375 71.4842C60.7912 70.9465 60.2722 71.8367 60.1423 71.8367C60.0128 71.8367 59.9198 72.152 59.9198 72.152C59.9198 72.152 61.5331 65.4403 56.8425 65.4403C53.9129 65.4403 49.8712 68.6476 47.8694 71.5401C45.593 72.7787 43.3186 74.0208 41.046 75.2664C39.9526 75.8783 38.8217 76.4903 37.7645 77.0651C37.6903 76.991 37.6162 76.898 37.5421 76.8239C31.8688 70.7611 21.3753 66.4787 21.8202 58.3395C21.9873 55.3729 23.0069 47.5861 41.9732 38.1306C57.5839 30.4367 70.006 32.5685 72.1566 37.2963C75.2339 44.0451 65.5007 56.5779 49.371 58.3949C43.2153 59.0809 39.9897 56.7079 39.1742 55.8182C38.321 54.891 38.191 54.8356 37.8757 55.021C37.3567 55.2987 37.6903 56.1331 37.8757 56.615C38.3581 57.8759 40.3416 60.1006 43.6973 61.1944C46.6639 62.1588 53.8758 62.6965 62.6082 59.3221C72.379 55.5399 80.0175 45.0272 77.774 36.2212C75.531 27.2847 60.6988 24.3369 46.6639 29.3241C38.3205 32.2908 29.2733 36.9626 22.7657 43.0437C15.0343 50.2749 13.811 56.5596 14.3117 59.1921C16.1098 68.5364 28.9951 74.6174 34.1494 79.1228C33.8899 79.271 33.6487 79.401 33.445 79.5122C30.8679 80.7914 21.0417 85.9269 18.594 91.3595C15.8133 97.5147 19.0394 101.927 21.1712 102.52C27.79 104.356 34.5942 101.056 38.2469 95.6048C41.8991 90.154 41.4542 83.072 39.7668 79.8276C39.7487 79.7865 39.7236 79.7489 39.6926 79.7164C40.3604 79.3269 41.046 78.9191 41.7137 78.5296C42.9407 77.8046 44.1831 77.106 45.4401 76.4344C44.8099 78.1589 44.3462 80.2166 44.1238 83.1832C43.846 86.6688 45.2735 91.1924 47.1458 92.9723C47.9801 93.7508 48.9628 93.7696 49.5935 93.7696C51.7811 93.7696 52.7637 91.9526 53.8576 89.802C55.1921 87.169 56.3976 84.11 56.3976 84.11C56.3976 84.11 54.8955 92.3792 58.9743 92.3792C60.4576 92.3792 61.9592 90.451 62.627 89.4684V89.4867C62.627 89.4867 62.664 89.4313 62.7382 89.3013C62.8865 89.0601 62.9789 88.9118 62.9789 88.9118V88.8748C63.5725 87.8368 64.9071 85.4821 66.8911 81.5699C69.4494 76.5273 71.9154 70.2238 71.9154 70.2238C71.9154 70.2238 72.1378 71.7625 72.898 74.3209C73.3428 75.823 74.2701 77.4729 75.0115 79.0674C74.4184 79.9017 74.0477 80.3649 74.0477 80.3649L74.066 80.3837C73.584 81.0138 73.0651 81.6999 72.4902 82.3672C70.4691 84.7777 68.059 87.5403 67.7254 88.3375C67.3359 89.2831 67.4288 89.9686 68.1703 90.5252C68.708 90.9329 69.6719 90.9883 70.6545 90.9329C72.4714 90.8029 73.7511 90.3581 74.3813 90.0798C75.3639 89.7279 76.5136 89.1901 77.5887 88.3929C79.5727 86.9283 80.7777 84.8331 80.6665 82.0706C80.6106 80.5502 80.1099 79.0303 79.4985 77.6024C79.6839 77.3429 79.8505 77.0834 80.0358 76.8239C83.1695 72.2444 85.5979 67.2201 85.5979 67.2201C85.5979 67.2201 85.8203 68.7588 86.5805 71.3177C86.9512 72.6151 87.7114 74.0243 88.3792 75.3964C85.4313 77.7882 83.6144 80.569 82.9654 82.386C81.7974 85.7604 82.7059 87.2803 84.4299 87.6327C85.2089 87.7997 86.321 87.429 87.1371 87.0766C88.175 86.743 89.3989 86.1681 90.5668 85.315C92.5503 83.8505 94.4602 81.8111 94.349 79.0486C94.2932 77.7882 93.9595 76.5456 93.4959 75.3406C95.9989 74.3026 99.225 73.7278 103.341 74.2097C112.166 75.2481 113.909 80.7544 113.575 83.072C113.241 85.3892 111.387 86.6501 110.775 87.0395C110.164 87.429 109.96 87.5585 110.016 87.8368C110.09 88.2446 110.386 88.2258 110.905 88.1517C111.628 88.0222 115.54 86.2794 115.707 82.0153C115.985 76.5644 110.794 70.6128 101.617 70.6687ZM33.5374 93.6213C30.6084 96.8099 26.5296 98.0154 24.768 96.9957C22.8769 95.9014 23.6183 91.1924 27.2157 87.818C29.4028 85.7604 32.2212 83.8505 34.0935 82.6825C34.5201 82.423 35.1503 82.0523 35.9105 81.5887C36.0405 81.5146 36.1146 81.4775 36.1146 81.4775L36.5594 81.1992C37.8757 86.0199 36.6148 90.2657 33.5374 93.6213ZM54.859 79.1228C53.8393 81.6075 51.7075 87.9663 50.4095 87.6144C49.2974 87.3173 48.6114 82.4972 50.1871 77.7324C50.9844 75.3406 52.6713 72.4856 53.6539 71.373C55.2485 69.5931 57.0096 69 57.4361 69.7231C57.9739 70.6687 55.4897 77.5653 54.859 79.1228ZM72.4537 87.5402C72.0271 87.7627 71.6193 87.9109 71.434 87.7997C71.304 87.7256 71.6193 87.429 71.6193 87.429C71.6193 87.429 73.8258 85.0555 74.6972 83.9805C75.1974 83.3498 75.791 82.6084 76.4212 81.774V82.0153C76.4212 84.8519 73.6775 86.7613 72.4537 87.5402ZM86.0249 84.4436C85.7096 84.2212 85.7655 83.4798 86.8222 81.1621C87.23 80.2536 88.1943 78.7338 89.8442 77.2687C90.0296 77.8624 90.1596 78.4367 90.1408 78.9745C90.1225 82.553 87.5636 83.8876 86.0249 84.4436Z" fill="white"/>
</g>
</g>
<defs>
<clipPath id="clip0_44_101">
<rect width="130" height="130" fill="white"/>
</clipPath>
</defs>
</svg>
